<?xml version="1.0" encoding="UTF-8"?><svg id="Layer_1" xmlns="http://www.w3.org/2000/svg" viewBox="0 0 490.38 337.19"><path d="M490.38,30.7c-161.32,0-322.64,0-483.96,0q-6.38,0-6.38-6.47c0-6.86,.09-13.73-.04-20.58C-.05,1,.81-.23,3.56,.04c1.26,.12,2.55,.02,3.83,.02,161,0,322,0,483,0V30.7Z" fill="#d0d0d0"/><path d="M490.38,183.95c-161.32,0-322.64,0-483.96,0q-6.38,0-6.38-6.47c0-6.86,.09-13.73-.04-20.58-.05-2.65,.81-3.88,3.55-3.61,1.26,.12,2.55,.02,3.83,.02,161,0,322,0,483,0v30.65Z" fill="#d0d0d0"/><path d="M490.38,337.19c-161.32,0-322.64,0-483.96,0q-6.38,0-6.38-6.47c0-6.86,.09-13.73-.04-20.58-.05-2.65,.81-3.88,3.55-3.61,1.26,.12,2.55,.02,3.83,.02,161,0,322,0,483,0v30.65Z" fill="#d0d0d0"/></svg>