<?xml version="1.0" encoding="UTF-8"?><svg id="Layer_1" xmlns="http://www.w3.org/2000/svg" viewBox="0 0 415.81 415.86"><path d="M0,207.65C.22,93.02,94.06-.47,208.42,0c114.57,.47,207.6,93.86,207.39,208.18-.21,114.63-94.1,208.17-208.42,207.67C92.83,415.35-.22,321.94,0,207.65Z"/><path d="M153.58,234.57c-38.84,17.04-65.82,45.33-80.79,85.01-48.13-53.02-61.26-153.92,2.38-227.16C140.57,17.17,255.75,11.34,328.15,79.45c72.85,68.54,70.14,176.58,15.12,240.4-15.07-39.81-42.05-68.23-80.98-85.29,35.92-34.77,31.93-86.88,.68-116.45-31.21-29.53-79.07-29.49-110.19,.04-30.39,28.84-35.92,80.79,.81,116.43Z" fill="#fefefe"/><path d="M207.68,383.95c-39.03-.5-74.36-12.15-105.72-35.66-2.45-1.84-3.17-3.42-2.4-6.6,12.04-50.32,56.71-85.78,108.33-85.78,51.76,0,96.69,35.7,108.61,86.15,.69,2.94-.11,4.45-2.41,6.18-31.51,23.64-67.02,35.25-106.39,35.71Z" fill="#fefefe"/><path d="M207.94,223.91c-26.57,.06-48-21.28-48-47.8,0-26.72,21.08-48.02,47.67-48.14,26.86-.13,48.3,21.22,48.26,48.05-.03,26.61-21.27,47.83-47.93,47.89Z" fill="#fefefe"/></svg>