<?xml version="1.0" encoding="UTF-8"?><svg id="Layer_1" xmlns="http://www.w3.org/2000/svg" viewBox="0 0 319.74 319.73"><path d="M0,136.17C-.03,65.11,46,11.22,107.91,1.54c67.76-10.59,132.51,34.44,145.41,101.43,6.49,33.72,.65,65.3-18.23,94.19-1.59,2.43-.96,3.49,.79,5.19,25.03,24.44,50,48.94,74.99,73.43,9.25,9.07,11.78,24.37,5.18,35.51-3.42,5.78-9.92,7.37-16.12,8.18-8.51,1.11-15.76-1.55-22-7.87-25.04-25.32-50.33-50.39-75.42-75.66-2.14-2.16-3.4-2.09-5.83-.51-48.97,31.85-113.82,25.87-156.22-14.46C13.85,195.7,.53,164.54,0,136.17Z" fill="#727272"/><path d="M33.46,127.43c.55-54.17,44.93-96.55,97.75-95.51,53.56,1.06,94.64,45.32,94.29,98.68-.32,49.1-48.57,96.46-100.76,93.23-49.22-3.04-91.29-43.55-91.28-96.4Z" fill="#fefefe"/></svg>